%TF.GenerationSoftware,KiCad,Pcbnew,9.0.7-9.0.7~ubuntu24.04.1*%
%TF.CreationDate,2026-02-22T02:26:07+00:00*%
%TF.ProjectId,led-matrix,6c65642d-6d61-4747-9269-782e6b696361,rev?*%
%TF.SameCoordinates,Original*%
%TF.FileFunction,Soldermask,Top*%
%TF.FilePolarity,Negative*%
%FSLAX46Y46*%
G04 Gerber Fmt 4.6, Leading zero omitted, Abs format (unit mm)*
G04 Created by KiCad (PCBNEW 9.0.7-9.0.7~ubuntu24.04.1) date 2026-02-22 02:26:07*
%MOMM*%
%LPD*%
G01*
G04 APERTURE LIST*
G04 Aperture macros list*
%AMRoundRect*
0 Rectangle with rounded corners*
0 $1 Rounding radius*
0 $2 $3 $4 $5 $6 $7 $8 $9 X,Y pos of 4 corners*
0 Add a 4 corners polygon primitive as box body*
4,1,4,$2,$3,$4,$5,$6,$7,$8,$9,$2,$3,0*
0 Add four circle primitives for the rounded corners*
1,1,$1+$1,$2,$3*
1,1,$1+$1,$4,$5*
1,1,$1+$1,$6,$7*
1,1,$1+$1,$8,$9*
0 Add four rect primitives between the rounded corners*
20,1,$1+$1,$2,$3,$4,$5,0*
20,1,$1+$1,$4,$5,$6,$7,0*
20,1,$1+$1,$6,$7,$8,$9,0*
20,1,$1+$1,$8,$9,$2,$3,0*%
G04 Aperture macros list end*
%ADD10C,1.600000*%
%ADD11C,1.700000*%
%ADD12R,1.700000X1.700000*%
%ADD13RoundRect,0.243750X0.456250X-0.243750X0.456250X0.243750X-0.456250X0.243750X-0.456250X-0.243750X0*%
G04 APERTURE END LIST*
D10*
%TO.C,R8*%
X150420000Y-35000000D03*
X160580000Y-35000000D03*
%TD*%
%TO.C,R7*%
X160580000Y-40000000D03*
X150420000Y-40000000D03*
%TD*%
D11*
%TO.C,U1*%
X169500000Y-43500000D03*
X169500000Y-46040000D03*
X169500000Y-48580000D03*
X169500000Y-51120000D03*
X169500000Y-53660000D03*
X169500000Y-56200000D03*
X169500000Y-58740000D03*
D12*
X169500000Y-61280000D03*
%TD*%
D10*
%TO.C,R2*%
X160580000Y-64500000D03*
X150420000Y-64500000D03*
%TD*%
%TO.C,R1*%
X160580000Y-70000000D03*
X150420000Y-70000000D03*
%TD*%
%TO.C,R3*%
X160580000Y-60000000D03*
X150420000Y-60000000D03*
%TD*%
%TO.C,R4*%
X160580000Y-55000000D03*
X150420000Y-55000000D03*
%TD*%
%TO.C,R5*%
X160580000Y-50000000D03*
X150420000Y-50000000D03*
%TD*%
%TO.C,R6*%
X160660000Y-45000000D03*
X150500000Y-45000000D03*
%TD*%
D13*
%TO.C,D10*%
X115381250Y-36900000D03*
X115381250Y-35025000D03*
%TD*%
%TO.C,D55*%
X101408750Y-51891000D03*
X101408750Y-50016000D03*
%TD*%
%TO.C,D94*%
X134011250Y-61885000D03*
X134011250Y-60010000D03*
%TD*%
%TO.C,D77*%
X129353750Y-56888000D03*
X129353750Y-55013000D03*
%TD*%
%TO.C,D18*%
X78121250Y-41897000D03*
X78121250Y-40022000D03*
%TD*%
%TO.C,D69*%
X92093750Y-56888000D03*
X92093750Y-55013000D03*
%TD*%
%TO.C,D16*%
X143326250Y-36900000D03*
X143326250Y-35025000D03*
%TD*%
%TO.C,D45*%
X129353750Y-46894000D03*
X129353750Y-45019000D03*
%TD*%
%TO.C,D11*%
X120038750Y-36900000D03*
X120038750Y-35025000D03*
%TD*%
%TO.C,D118*%
X96751250Y-71879000D03*
X96751250Y-70004000D03*
%TD*%
%TO.C,D28*%
X124696250Y-41897000D03*
X124696250Y-40022000D03*
%TD*%
%TO.C,D125*%
X129353750Y-71879000D03*
X129353750Y-70004000D03*
%TD*%
%TO.C,D6*%
X96751250Y-36900000D03*
X96751250Y-35025000D03*
%TD*%
%TO.C,D114*%
X78121250Y-71879000D03*
X78121250Y-70004000D03*
%TD*%
%TO.C,D90*%
X115381250Y-61885000D03*
X115381250Y-60010000D03*
%TD*%
%TO.C,D109*%
X129353750Y-66882000D03*
X129353750Y-65007000D03*
%TD*%
%TO.C,D71*%
X101408750Y-56888000D03*
X101408750Y-55013000D03*
%TD*%
%TO.C,D12*%
X124696250Y-36900000D03*
X124696250Y-35025000D03*
%TD*%
%TO.C,D27*%
X120038750Y-41897000D03*
X120038750Y-40022000D03*
%TD*%
%TO.C,D121*%
X110723750Y-71879000D03*
X110723750Y-70004000D03*
%TD*%
%TO.C,D22*%
X96751250Y-41897000D03*
X96751250Y-40022000D03*
%TD*%
%TO.C,D52*%
X87436250Y-51891000D03*
X87436250Y-50016000D03*
%TD*%
%TO.C,D4*%
X87436250Y-36900000D03*
X87436250Y-35025000D03*
%TD*%
%TO.C,D17*%
X73463750Y-41897000D03*
X73463750Y-40022000D03*
%TD*%
%TO.C,D124*%
X124696250Y-71879000D03*
X124696250Y-70004000D03*
%TD*%
%TO.C,D74*%
X115381250Y-56888000D03*
X115381250Y-55013000D03*
%TD*%
%TO.C,D24*%
X106066250Y-41897000D03*
X106066250Y-40022000D03*
%TD*%
%TO.C,D113*%
X73463750Y-71879000D03*
X73463750Y-70004000D03*
%TD*%
%TO.C,D106*%
X115381250Y-66882000D03*
X115381250Y-65007000D03*
%TD*%
%TO.C,D107*%
X120038750Y-66882000D03*
X120038750Y-65007000D03*
%TD*%
%TO.C,D86*%
X96751250Y-61885000D03*
X96751250Y-60010000D03*
%TD*%
%TO.C,D57*%
X110723750Y-51891000D03*
X110723750Y-50016000D03*
%TD*%
%TO.C,D20*%
X87436250Y-41897000D03*
X87436250Y-40022000D03*
%TD*%
%TO.C,D122*%
X115381250Y-71879000D03*
X115381250Y-70004000D03*
%TD*%
%TO.C,D7*%
X101408750Y-36900000D03*
X101408750Y-35025000D03*
%TD*%
%TO.C,D89*%
X110723750Y-61885000D03*
X110723750Y-60010000D03*
%TD*%
%TO.C,D5*%
X92093750Y-36900000D03*
X92093750Y-35025000D03*
%TD*%
%TO.C,D82*%
X78121250Y-61885000D03*
X78121250Y-60010000D03*
%TD*%
%TO.C,D44*%
X124696250Y-46894000D03*
X124696250Y-45019000D03*
%TD*%
%TO.C,D81*%
X73463750Y-61885000D03*
X73463750Y-60010000D03*
%TD*%
%TO.C,D50*%
X78121250Y-51891000D03*
X78121250Y-50016000D03*
%TD*%
%TO.C,D128*%
X143326250Y-71879000D03*
X143326250Y-70004000D03*
%TD*%
%TO.C,D8*%
X106066250Y-36900000D03*
X106066250Y-35025000D03*
%TD*%
%TO.C,D54*%
X96751250Y-51891000D03*
X96751250Y-50016000D03*
%TD*%
%TO.C,D119*%
X101408750Y-71879000D03*
X101408750Y-70004000D03*
%TD*%
%TO.C,D76*%
X124696250Y-56888000D03*
X124696250Y-55013000D03*
%TD*%
%TO.C,D83*%
X82778750Y-61885000D03*
X82778750Y-60010000D03*
%TD*%
%TO.C,D95*%
X138668750Y-61885000D03*
X138668750Y-60010000D03*
%TD*%
%TO.C,D63*%
X138668750Y-51891000D03*
X138668750Y-50016000D03*
%TD*%
%TO.C,D120*%
X106066250Y-71879000D03*
X106066250Y-70004000D03*
%TD*%
%TO.C,D61*%
X129353750Y-51891000D03*
X129353750Y-50016000D03*
%TD*%
%TO.C,D53*%
X92093750Y-51891000D03*
X92093750Y-50016000D03*
%TD*%
%TO.C,D104*%
X106066250Y-66882000D03*
X106066250Y-65007000D03*
%TD*%
%TO.C,D66*%
X78121250Y-56888000D03*
X78121250Y-55013000D03*
%TD*%
%TO.C,D91*%
X120038750Y-61885000D03*
X120038750Y-60010000D03*
%TD*%
%TO.C,D36*%
X87436250Y-46894000D03*
X87436250Y-45019000D03*
%TD*%
%TO.C,D123*%
X120038750Y-71879000D03*
X120038750Y-70004000D03*
%TD*%
%TO.C,D99*%
X82778750Y-66882000D03*
X82778750Y-65007000D03*
%TD*%
%TO.C,D116*%
X87436250Y-71879000D03*
X87436250Y-70004000D03*
%TD*%
%TO.C,D30*%
X134011250Y-41897000D03*
X134011250Y-40022000D03*
%TD*%
%TO.C,D68*%
X87436250Y-56888000D03*
X87436250Y-55013000D03*
%TD*%
%TO.C,D31*%
X138668750Y-41897000D03*
X138668750Y-40022000D03*
%TD*%
%TO.C,D105*%
X110723750Y-66882000D03*
X110723750Y-65007000D03*
%TD*%
%TO.C,D88*%
X106066250Y-61885000D03*
X106066250Y-60010000D03*
%TD*%
%TO.C,D80*%
X143326250Y-56888000D03*
X143326250Y-55013000D03*
%TD*%
%TO.C,D47*%
X138668750Y-46894000D03*
X138668750Y-45019000D03*
%TD*%
%TO.C,D79*%
X138668750Y-56888000D03*
X138668750Y-55013000D03*
%TD*%
%TO.C,D108*%
X124696250Y-66882000D03*
X124696250Y-65007000D03*
%TD*%
%TO.C,D58*%
X115381250Y-51891000D03*
X115381250Y-50016000D03*
%TD*%
%TO.C,D62*%
X134011250Y-51891000D03*
X134011250Y-50016000D03*
%TD*%
%TO.C,D32*%
X143326250Y-41897000D03*
X143326250Y-40022000D03*
%TD*%
%TO.C,D102*%
X96751250Y-66882000D03*
X96751250Y-65007000D03*
%TD*%
%TO.C,D13*%
X129353750Y-36900000D03*
X129353750Y-35025000D03*
%TD*%
%TO.C,D35*%
X82778750Y-46894000D03*
X82778750Y-45019000D03*
%TD*%
%TO.C,D49*%
X73463750Y-51891000D03*
X73463750Y-50016000D03*
%TD*%
%TO.C,D103*%
X101408750Y-66882000D03*
X101408750Y-65007000D03*
%TD*%
%TO.C,D3*%
X82778750Y-36900000D03*
X82778750Y-35025000D03*
%TD*%
%TO.C,D37*%
X92093750Y-46894000D03*
X92093750Y-45019000D03*
%TD*%
%TO.C,D42*%
X115381250Y-46894000D03*
X115381250Y-45019000D03*
%TD*%
%TO.C,D56*%
X106066250Y-51891000D03*
X106066250Y-50016000D03*
%TD*%
%TO.C,D26*%
X115381250Y-41897000D03*
X115381250Y-40022000D03*
%TD*%
%TO.C,D23*%
X101408750Y-41897000D03*
X101408750Y-40022000D03*
%TD*%
%TO.C,D111*%
X138668750Y-66882000D03*
X138668750Y-65007000D03*
%TD*%
%TO.C,D51*%
X82778750Y-51891000D03*
X82778750Y-50016000D03*
%TD*%
D12*
%TO.C,U2*%
X90440000Y-81000000D03*
D11*
X92980000Y-81000000D03*
X95520000Y-81000000D03*
X98060000Y-81000000D03*
X100600000Y-81000000D03*
X103140000Y-81000000D03*
X105680000Y-81000000D03*
X108220000Y-81000000D03*
X110760000Y-81000000D03*
X113300000Y-81000000D03*
X115840000Y-81000000D03*
X118380000Y-81000000D03*
X120920000Y-81000000D03*
X123460000Y-81000000D03*
X126000000Y-81000000D03*
X128540000Y-81000000D03*
%TD*%
D13*
%TO.C,D72*%
X106066250Y-56888000D03*
X106066250Y-55013000D03*
%TD*%
%TO.C,D25*%
X110723750Y-41897000D03*
X110723750Y-40022000D03*
%TD*%
%TO.C,D100*%
X87436250Y-66882000D03*
X87436250Y-65007000D03*
%TD*%
%TO.C,D46*%
X134011250Y-46894000D03*
X134011250Y-45019000D03*
%TD*%
%TO.C,D127*%
X138668750Y-71879000D03*
X138668750Y-70004000D03*
%TD*%
%TO.C,D41*%
X110723750Y-46894000D03*
X110723750Y-45019000D03*
%TD*%
%TO.C,D1*%
X73463750Y-36900000D03*
X73463750Y-35025000D03*
%TD*%
%TO.C,D60*%
X124696250Y-51891000D03*
X124696250Y-50016000D03*
%TD*%
%TO.C,D101*%
X92093750Y-66882000D03*
X92093750Y-65007000D03*
%TD*%
%TO.C,D29*%
X129353750Y-41897000D03*
X129353750Y-40022000D03*
%TD*%
%TO.C,D43*%
X120038750Y-46894000D03*
X120038750Y-45019000D03*
%TD*%
%TO.C,D93*%
X129353750Y-61885000D03*
X129353750Y-60010000D03*
%TD*%
%TO.C,D67*%
X82778750Y-56888000D03*
X82778750Y-55013000D03*
%TD*%
%TO.C,D73*%
X110723750Y-56888000D03*
X110723750Y-55013000D03*
%TD*%
%TO.C,D14*%
X134011250Y-36900000D03*
X134011250Y-35025000D03*
%TD*%
%TO.C,D110*%
X134011250Y-66882000D03*
X134011250Y-65007000D03*
%TD*%
%TO.C,D96*%
X143326250Y-61885000D03*
X143326250Y-60010000D03*
%TD*%
%TO.C,D19*%
X82778750Y-41897000D03*
X82778750Y-40022000D03*
%TD*%
%TO.C,D33*%
X73463750Y-46894000D03*
X73463750Y-45019000D03*
%TD*%
%TO.C,D9*%
X110723750Y-36900000D03*
X110723750Y-35025000D03*
%TD*%
%TO.C,D84*%
X87436250Y-61885000D03*
X87436250Y-60010000D03*
%TD*%
%TO.C,D126*%
X134011250Y-71879000D03*
X134011250Y-70004000D03*
%TD*%
%TO.C,D78*%
X134011250Y-56888000D03*
X134011250Y-55013000D03*
%TD*%
%TO.C,D21*%
X92093750Y-41897000D03*
X92093750Y-40022000D03*
%TD*%
%TO.C,D98*%
X78121250Y-66882000D03*
X78121250Y-65007000D03*
%TD*%
%TO.C,D59*%
X120038750Y-51891000D03*
X120038750Y-50016000D03*
%TD*%
%TO.C,D87*%
X101408750Y-61885000D03*
X101408750Y-60010000D03*
%TD*%
%TO.C,D65*%
X73463750Y-56888000D03*
X73463750Y-55013000D03*
%TD*%
%TO.C,D115*%
X82778750Y-71879000D03*
X82778750Y-70004000D03*
%TD*%
%TO.C,D92*%
X124696250Y-61885000D03*
X124696250Y-60010000D03*
%TD*%
%TO.C,D112*%
X143326250Y-66882000D03*
X143326250Y-65007000D03*
%TD*%
%TO.C,D64*%
X143326250Y-51891000D03*
X143326250Y-50016000D03*
%TD*%
%TO.C,D15*%
X138668750Y-36900000D03*
X138668750Y-35025000D03*
%TD*%
%TO.C,D2*%
X78121250Y-36900000D03*
X78121250Y-35025000D03*
%TD*%
%TO.C,D40*%
X106066250Y-46894000D03*
X106066250Y-45019000D03*
%TD*%
%TO.C,D75*%
X120038750Y-56888000D03*
X120038750Y-55013000D03*
%TD*%
%TO.C,D70*%
X96751250Y-56888000D03*
X96751250Y-55013000D03*
%TD*%
%TO.C,D48*%
X143326250Y-46894000D03*
X143326250Y-45019000D03*
%TD*%
%TO.C,D34*%
X78121250Y-46894000D03*
X78121250Y-45019000D03*
%TD*%
%TO.C,D97*%
X73463750Y-66882000D03*
X73463750Y-65007000D03*
%TD*%
%TO.C,D85*%
X92093750Y-61885000D03*
X92093750Y-60010000D03*
%TD*%
%TO.C,D38*%
X96751250Y-46894000D03*
X96751250Y-45019000D03*
%TD*%
%TO.C,D39*%
X101408750Y-46894000D03*
X101408750Y-45019000D03*
%TD*%
%TO.C,D117*%
X92093750Y-71879000D03*
X92093750Y-70004000D03*
%TD*%
M02*
