%TF.GenerationSoftware,KiCad,Pcbnew,9.0.7-9.0.7~ubuntu24.04.1*%
%TF.CreationDate,2026-02-22T02:21:52+00:00*%
%TF.ProjectId,led-matrix,6c65642d-6d61-4747-9269-782e6b696361,rev?*%
%TF.SameCoordinates,Original*%
%TF.FileFunction,Copper,L2,Bot*%
%TF.FilePolarity,Positive*%
%FSLAX46Y46*%
G04 Gerber Fmt 4.6, Leading zero omitted, Abs format (unit mm)*
G04 Created by KiCad (PCBNEW 9.0.7-9.0.7~ubuntu24.04.1) date 2026-02-22 02:21:52*
%MOMM*%
%LPD*%
G01*
G04 APERTURE LIST*
%TA.AperFunction,ComponentPad*%
%ADD10C,1.600000*%
%TD*%
%TA.AperFunction,ComponentPad*%
%ADD11C,1.700000*%
%TD*%
%TA.AperFunction,ComponentPad*%
%ADD12R,1.700000X1.700000*%
%TD*%
%TA.AperFunction,ViaPad*%
%ADD13C,0.600000*%
%TD*%
%TA.AperFunction,Conductor*%
%ADD14C,0.350000*%
%TD*%
G04 APERTURE END LIST*
D10*
%TO.P,R8,1*%
%TO.N,Net-(D1-A)*%
X150420000Y-35000000D03*
%TO.P,R8,2*%
%TO.N,Net-(R8-Pad2)*%
X160580000Y-35000000D03*
%TD*%
%TO.P,R7,2*%
%TO.N,Net-(R7-Pad2)*%
X160580000Y-40000000D03*
%TO.P,R7,1*%
%TO.N,Net-(D17-A)*%
X150420000Y-40000000D03*
%TD*%
D11*
%TO.P,U1,8*%
%TO.N,Net-(R8-Pad2)*%
X169500000Y-43500000D03*
%TO.P,U1,7*%
%TO.N,Net-(R7-Pad2)*%
X169500000Y-46040000D03*
%TO.P,U1,6*%
%TO.N,Net-(R6-Pad2)*%
X169500000Y-48580000D03*
%TO.P,U1,5*%
%TO.N,Net-(R5-Pad2)*%
X169500000Y-51120000D03*
%TO.P,U1,4*%
%TO.N,Net-(R4-Pad2)*%
X169500000Y-53660000D03*
%TO.P,U1,3*%
%TO.N,Net-(R3-Pad2)*%
X169500000Y-56200000D03*
%TO.P,U1,2*%
%TO.N,Net-(R2-Pad2)*%
X169500000Y-58740000D03*
D12*
%TO.P,U1,1*%
%TO.N,Net-(R1-Pad2)*%
X169500000Y-61280000D03*
%TD*%
D10*
%TO.P,R2,2*%
%TO.N,Net-(R2-Pad2)*%
X160580000Y-64500000D03*
%TO.P,R2,1*%
%TO.N,Net-(D100-A)*%
X150420000Y-64500000D03*
%TD*%
%TO.P,R1,2*%
%TO.N,Net-(R1-Pad2)*%
X160580000Y-70000000D03*
%TO.P,R1,1*%
%TO.N,Net-(D113-A)*%
X150420000Y-70000000D03*
%TD*%
%TO.P,R3,2*%
%TO.N,Net-(R3-Pad2)*%
X160580000Y-60000000D03*
%TO.P,R3,1*%
%TO.N,Net-(D81-A)*%
X150420000Y-60000000D03*
%TD*%
%TO.P,R4,2*%
%TO.N,Net-(R4-Pad2)*%
X160580000Y-55000000D03*
%TO.P,R4,1*%
%TO.N,Net-(D65-A)*%
X150420000Y-55000000D03*
%TD*%
%TO.P,R5,2*%
%TO.N,Net-(R5-Pad2)*%
X160580000Y-50000000D03*
%TO.P,R5,1*%
%TO.N,Net-(D49-A)*%
X150420000Y-50000000D03*
%TD*%
%TO.P,R6,2*%
%TO.N,Net-(R6-Pad2)*%
X160660000Y-45000000D03*
%TO.P,R6,1*%
%TO.N,Net-(D33-A)*%
X150500000Y-45000000D03*
%TD*%
D12*
%TO.P,U2,1*%
%TO.N,Net-(D1-K)*%
X90440000Y-81000000D03*
D11*
%TO.P,U2,2*%
%TO.N,Net-(D114-K)*%
X92980000Y-81000000D03*
%TO.P,U2,3*%
%TO.N,Net-(D115-K)*%
X95520000Y-81000000D03*
%TO.P,U2,4*%
%TO.N,Net-(D100-K)*%
X98060000Y-81000000D03*
%TO.P,U2,5*%
%TO.N,Net-(D101-K)*%
X100600000Y-81000000D03*
%TO.P,U2,6*%
%TO.N,Net-(D102-K)*%
X103140000Y-81000000D03*
%TO.P,U2,7*%
%TO.N,Net-(D103-K)*%
X105680000Y-81000000D03*
%TO.P,U2,8*%
%TO.N,Net-(D104-K)*%
X108220000Y-81000000D03*
%TO.P,U2,9*%
%TO.N,Net-(D105-K)*%
X110760000Y-81000000D03*
%TO.P,U2,10*%
%TO.N,Net-(D10-K)*%
X113300000Y-81000000D03*
%TO.P,U2,11*%
%TO.N,Net-(D107-K)*%
X115840000Y-81000000D03*
%TO.P,U2,12*%
%TO.N,Net-(D108-K)*%
X118380000Y-81000000D03*
%TO.P,U2,13*%
%TO.N,Net-(D109-K)*%
X120920000Y-81000000D03*
%TO.P,U2,14*%
%TO.N,Net-(D110-K)*%
X123460000Y-81000000D03*
%TO.P,U2,15*%
%TO.N,Net-(D111-K)*%
X126000000Y-81000000D03*
%TO.P,U2,16*%
%TO.N,Net-(D112-K)*%
X128540000Y-81000000D03*
%TD*%
D13*
%TO.N,Net-(D1-K)*%
X73463750Y-71879000D03*
X73463750Y-36900000D03*
X73463750Y-51891000D03*
X73463750Y-56888000D03*
X73463750Y-41897000D03*
X73463750Y-61885000D03*
X73463750Y-46894000D03*
X73463750Y-66882000D03*
%TO.N,Net-(D100-K)*%
X87472497Y-46909804D03*
X87472497Y-51906804D03*
X87472497Y-61900804D03*
X87472497Y-66897804D03*
X87472497Y-56903804D03*
X87472497Y-71894804D03*
X87472497Y-36915804D03*
X87472497Y-41912804D03*
%TO.N,Net-(D101-K)*%
X92127365Y-46922539D03*
X92127365Y-56916539D03*
X92127365Y-51919539D03*
X92127365Y-61913539D03*
X92127365Y-36928539D03*
X92127365Y-71907539D03*
X92127365Y-41925539D03*
X92127365Y-66910539D03*
%TO.N,Net-(D102-K)*%
X96769498Y-41887332D03*
X96769498Y-36890332D03*
X96769498Y-46884332D03*
X96769498Y-66872332D03*
X96769498Y-61875332D03*
X96769498Y-56878332D03*
X96769498Y-71869332D03*
X96769498Y-51881332D03*
%TO.N,Net-(D103-K)*%
X101424367Y-56910171D03*
X101424367Y-46916171D03*
X101424367Y-51913171D03*
X101424367Y-41919171D03*
X101424367Y-61907171D03*
X101424367Y-36922171D03*
X101424367Y-71901171D03*
X101424367Y-66904171D03*
%TO.N,Net-(D104-K)*%
X106085603Y-66942378D03*
X106085603Y-56948378D03*
X106085603Y-71939378D03*
X106085603Y-51951378D03*
X106085603Y-61945378D03*
X106085603Y-46954378D03*
X106085603Y-36960378D03*
X106085603Y-41957378D03*
%TO.N,Net-(D105-K)*%
X110740472Y-66948746D03*
X110740472Y-71945746D03*
X110740472Y-36966746D03*
X110740472Y-41963746D03*
X110740472Y-51957746D03*
X110740472Y-46960746D03*
X110740472Y-56954746D03*
X110740472Y-61951746D03*
%TO.N,Net-(D10-K)*%
X115382605Y-46973482D03*
X115382605Y-66961482D03*
X115382605Y-61964482D03*
X115382605Y-41976482D03*
X115382605Y-71958482D03*
X115382605Y-36979482D03*
X115382605Y-51970482D03*
X115382605Y-56967482D03*
%TO.N,Net-(D107-K)*%
X120050209Y-36966746D03*
X120050209Y-66948746D03*
X120050209Y-46960746D03*
X120050209Y-41963746D03*
X120050209Y-51957746D03*
X120050209Y-71945746D03*
X120050209Y-56954746D03*
X120050209Y-61951746D03*
%TO.N,Net-(D108-K)*%
X124736916Y-66936011D03*
X124736916Y-36954011D03*
X124736916Y-61939011D03*
X124736916Y-41951011D03*
X124736916Y-56942011D03*
X124736916Y-51945011D03*
X124736916Y-46948011D03*
X124736916Y-71933011D03*
%TO.N,Net-(D109-K)*%
X129366314Y-61932643D03*
X129366314Y-56935643D03*
X129366314Y-36947643D03*
X129366314Y-41944643D03*
X129366314Y-46941643D03*
X129366314Y-51938643D03*
X129366314Y-66929643D03*
X129366314Y-71926643D03*
%TO.N,Net-(D110-K)*%
X134040286Y-56948378D03*
X134040286Y-51951378D03*
X134040286Y-41957378D03*
X134040286Y-61945378D03*
X134040286Y-66942378D03*
X134040286Y-71939378D03*
X134040286Y-46954378D03*
X134040286Y-36960378D03*
%TO.N,Net-(D111-K)*%
X138669683Y-56935643D03*
X138669683Y-41944643D03*
X138669683Y-66929643D03*
X138669683Y-71926643D03*
X138669683Y-61932643D03*
X138669683Y-46941643D03*
X138669683Y-51938643D03*
X138669683Y-36947643D03*
%TO.N,Net-(D112-K)*%
X143362758Y-46948011D03*
X143362758Y-41951011D03*
X143362758Y-51945011D03*
X143362758Y-56942011D03*
X143362758Y-66936011D03*
X143362758Y-71933011D03*
X143362758Y-36954011D03*
X143362758Y-61939011D03*
%TO.N,Net-(D114-K)*%
X78124553Y-61926275D03*
X78124553Y-56929275D03*
X78124553Y-41938275D03*
X78124553Y-36941275D03*
X78124553Y-66923275D03*
X78124553Y-46935275D03*
X78124553Y-51932275D03*
X78124553Y-71920275D03*
%TO.N,Net-(D115-K)*%
X82792157Y-56903804D03*
X82792157Y-66897804D03*
X82792157Y-61900804D03*
X82792157Y-51906804D03*
X82792157Y-46909804D03*
X82792157Y-36915804D03*
X82792157Y-41912804D03*
X82792157Y-71894804D03*
%TD*%
D14*
%TO.N,Net-(D1-K)*%
X73463750Y-36900000D02*
X73463750Y-71879000D01*
X73463750Y-71879000D02*
X82584750Y-81000000D01*
X82584750Y-81000000D02*
X90440000Y-81000000D01*
%TO.N,Net-(D100-K)*%
X87472497Y-71894804D02*
X87472497Y-36915804D01*
X87472497Y-71894804D02*
X91577693Y-76000000D01*
X93060000Y-76000000D02*
X98060000Y-81000000D01*
X91577693Y-76000000D02*
X93060000Y-76000000D01*
%TO.N,Net-(D101-K)*%
X92127365Y-72527365D02*
X92127365Y-71907539D01*
X100600000Y-81000000D02*
X92127365Y-72527365D01*
X92127365Y-36928539D02*
X92127365Y-71907539D01*
%TO.N,Net-(D102-K)*%
X96769498Y-71869332D02*
X96769498Y-36890332D01*
X96769498Y-71869332D02*
X96769498Y-74629498D01*
X96769498Y-74629498D02*
X103140000Y-81000000D01*
%TO.N,Net-(D103-K)*%
X101424367Y-74424367D02*
X105000000Y-78000000D01*
X105000000Y-80320000D02*
X105680000Y-81000000D01*
X101424367Y-36922171D02*
X101424367Y-71901171D01*
X101424367Y-71901171D02*
X101424367Y-74424367D01*
X105000000Y-78000000D02*
X105000000Y-80320000D01*
%TO.N,Net-(D104-K)*%
X106085603Y-71939378D02*
X106085603Y-36960378D01*
X106085603Y-71939378D02*
X106060622Y-71964359D01*
X106060622Y-78840622D02*
X108220000Y-81000000D01*
X106060622Y-71964359D02*
X106060622Y-78840622D01*
%TO.N,Net-(D105-K)*%
X110740472Y-71945746D02*
X110760000Y-71965274D01*
X110740472Y-36966746D02*
X110740472Y-71945746D01*
X110760000Y-71965274D02*
X110760000Y-81000000D01*
%TO.N,Net-(D10-K)*%
X115382605Y-71958482D02*
X115382605Y-36979482D01*
X115382605Y-71958482D02*
X115382605Y-78917395D01*
X115382605Y-78917395D02*
X113300000Y-81000000D01*
%TO.N,Net-(D107-K)*%
X120050209Y-36966746D02*
X120050209Y-71945746D01*
X120050209Y-76789791D02*
X115840000Y-81000000D01*
X120050209Y-71945746D02*
X120050209Y-76789791D01*
%TO.N,Net-(D108-K)*%
X124736916Y-74643084D02*
X118380000Y-81000000D01*
X124736916Y-71933011D02*
X124736916Y-74643084D01*
X124736916Y-71933011D02*
X124736916Y-36954011D01*
%TO.N,Net-(D109-K)*%
X129366314Y-36947643D02*
X129366314Y-71926643D01*
X129366314Y-72553686D02*
X120920000Y-81000000D01*
X129366314Y-71926643D02*
X129366314Y-72553686D01*
%TO.N,Net-(D110-K)*%
X123460000Y-81000000D02*
X129960000Y-74500000D01*
X134040286Y-71939378D02*
X134040286Y-36960378D01*
X129960000Y-74500000D02*
X132500000Y-74500000D01*
X134040286Y-72959714D02*
X134040286Y-71939378D01*
X132500000Y-74500000D02*
X134040286Y-72959714D01*
%TO.N,Net-(D111-K)*%
X126000000Y-81000000D02*
X129000000Y-78000000D01*
X134000000Y-78000000D02*
X138669683Y-73330317D01*
X138669683Y-36947643D02*
X138669683Y-71926643D01*
X129000000Y-78000000D02*
X134000000Y-78000000D01*
X138669683Y-73330317D02*
X138669683Y-71926643D01*
%TO.N,Net-(D112-K)*%
X134295769Y-81000000D02*
X128540000Y-81000000D01*
X143362758Y-71933011D02*
X134295769Y-81000000D01*
X143362758Y-71933011D02*
X143362758Y-36954011D01*
%TO.N,Net-(D114-K)*%
X84550804Y-72570804D02*
X78775082Y-72570804D01*
X92980000Y-81000000D02*
X84550804Y-72570804D01*
X78124553Y-71920275D02*
X78124553Y-36941275D01*
X78775082Y-72570804D02*
X78124553Y-71920275D01*
%TO.N,Net-(D115-K)*%
X82792157Y-71894804D02*
X86394804Y-71894804D01*
X92020000Y-77500000D02*
X95520000Y-81000000D01*
X92000000Y-77500000D02*
X92020000Y-77500000D01*
X86394804Y-71894804D02*
X92000000Y-77500000D01*
X82792157Y-36915804D02*
X82792157Y-71894804D01*
%TD*%
M02*
