%TF.GenerationSoftware,KiCad,Pcbnew,9.0.7-9.0.7~ubuntu24.04.1*%
%TF.CreationDate,2026-02-22T02:31:22+00:00*%
%TF.ProjectId,led-matrix,6c65642d-6d61-4747-9269-782e6b696361,rev?*%
%TF.SameCoordinates,Original*%
%TF.FileFunction,Copper,L1,Top*%
%TF.FilePolarity,Positive*%
%FSLAX46Y46*%
G04 Gerber Fmt 4.6, Leading zero omitted, Abs format (unit mm)*
G04 Created by KiCad (PCBNEW 9.0.7-9.0.7~ubuntu24.04.1) date 2026-02-22 02:31:22*
%MOMM*%
%LPD*%
G01*
G04 APERTURE LIST*
G04 Aperture macros list*
%AMRoundRect*
0 Rectangle with rounded corners*
0 $1 Rounding radius*
0 $2 $3 $4 $5 $6 $7 $8 $9 X,Y pos of 4 corners*
0 Add a 4 corners polygon primitive as box body*
4,1,4,$2,$3,$4,$5,$6,$7,$8,$9,$2,$3,0*
0 Add four circle primitives for the rounded corners*
1,1,$1+$1,$2,$3*
1,1,$1+$1,$4,$5*
1,1,$1+$1,$6,$7*
1,1,$1+$1,$8,$9*
0 Add four rect primitives between the rounded corners*
20,1,$1+$1,$2,$3,$4,$5,0*
20,1,$1+$1,$4,$5,$6,$7,0*
20,1,$1+$1,$6,$7,$8,$9,0*
20,1,$1+$1,$8,$9,$2,$3,0*%
G04 Aperture macros list end*
%TA.AperFunction,ComponentPad*%
%ADD10C,1.600000*%
%TD*%
%TA.AperFunction,ComponentPad*%
%ADD11C,1.700000*%
%TD*%
%TA.AperFunction,ComponentPad*%
%ADD12R,1.700000X1.700000*%
%TD*%
%TA.AperFunction,SMDPad,CuDef*%
%ADD13RoundRect,0.243750X0.456250X-0.243750X0.456250X0.243750X-0.456250X0.243750X-0.456250X-0.243750X0*%
%TD*%
%TA.AperFunction,ViaPad*%
%ADD14C,0.800000*%
%TD*%
%TA.AperFunction,Conductor*%
%ADD15C,0.350000*%
%TD*%
G04 APERTURE END LIST*
D10*
%TO.P,R8,1*%
%TO.N,Net-(D1-A)*%
X150420000Y-35000000D03*
%TO.P,R8,2*%
%TO.N,Net-(R8-Pad2)*%
X160580000Y-35000000D03*
%TD*%
%TO.P,R7,2*%
%TO.N,Net-(R7-Pad2)*%
X160580000Y-40000000D03*
%TO.P,R7,1*%
%TO.N,Net-(D17-A)*%
X150420000Y-40000000D03*
%TD*%
D11*
%TO.P,U1,8*%
%TO.N,Net-(R8-Pad2)*%
X169500000Y-43500000D03*
%TO.P,U1,7*%
%TO.N,Net-(R7-Pad2)*%
X169500000Y-46040000D03*
%TO.P,U1,6*%
%TO.N,Net-(R6-Pad2)*%
X169500000Y-48580000D03*
%TO.P,U1,5*%
%TO.N,Net-(R5-Pad2)*%
X169500000Y-51120000D03*
%TO.P,U1,4*%
%TO.N,Net-(R4-Pad2)*%
X169500000Y-53660000D03*
%TO.P,U1,3*%
%TO.N,Net-(R3-Pad2)*%
X169500000Y-56200000D03*
%TO.P,U1,2*%
%TO.N,Net-(R2-Pad2)*%
X169500000Y-58740000D03*
D12*
%TO.P,U1,1*%
%TO.N,Net-(R1-Pad2)*%
X169500000Y-61280000D03*
%TD*%
D10*
%TO.P,R2,2*%
%TO.N,Net-(R2-Pad2)*%
X160580000Y-64500000D03*
%TO.P,R2,1*%
%TO.N,Net-(D100-A)*%
X150420000Y-64500000D03*
%TD*%
%TO.P,R1,2*%
%TO.N,Net-(R1-Pad2)*%
X160580000Y-70000000D03*
%TO.P,R1,1*%
%TO.N,Net-(D113-A)*%
X150420000Y-70000000D03*
%TD*%
%TO.P,R3,2*%
%TO.N,Net-(R3-Pad2)*%
X160580000Y-60000000D03*
%TO.P,R3,1*%
%TO.N,Net-(D81-A)*%
X150420000Y-60000000D03*
%TD*%
%TO.P,R4,2*%
%TO.N,Net-(R4-Pad2)*%
X160580000Y-55000000D03*
%TO.P,R4,1*%
%TO.N,Net-(D65-A)*%
X150420000Y-55000000D03*
%TD*%
%TO.P,R5,2*%
%TO.N,Net-(R5-Pad2)*%
X160580000Y-50000000D03*
%TO.P,R5,1*%
%TO.N,Net-(D49-A)*%
X150420000Y-50000000D03*
%TD*%
%TO.P,R6,2*%
%TO.N,Net-(R6-Pad2)*%
X160660000Y-45000000D03*
%TO.P,R6,1*%
%TO.N,Net-(D33-A)*%
X150500000Y-45000000D03*
%TD*%
D13*
%TO.P,D10,1,K*%
%TO.N,Net-(D10-K)*%
X115381250Y-36900000D03*
%TO.P,D10,2,A*%
%TO.N,Net-(D1-A)*%
X115381250Y-35025000D03*
%TD*%
%TO.P,D55,1,K*%
%TO.N,Net-(D103-K)*%
X101408750Y-51891000D03*
%TO.P,D55,2,A*%
%TO.N,Net-(D49-A)*%
X101408750Y-50016000D03*
%TD*%
%TO.P,D94,1,K*%
%TO.N,Net-(D110-K)*%
X134011250Y-61885000D03*
%TO.P,D94,2,A*%
%TO.N,Net-(D81-A)*%
X134011250Y-60010000D03*
%TD*%
%TO.P,D77,1,K*%
%TO.N,Net-(D109-K)*%
X129353750Y-56888000D03*
%TO.P,D77,2,A*%
%TO.N,Net-(D65-A)*%
X129353750Y-55013000D03*
%TD*%
%TO.P,D18,1,K*%
%TO.N,Net-(D114-K)*%
X78121250Y-41897000D03*
%TO.P,D18,2,A*%
%TO.N,Net-(D17-A)*%
X78121250Y-40022000D03*
%TD*%
%TO.P,D69,1,K*%
%TO.N,Net-(D101-K)*%
X92093750Y-56888000D03*
%TO.P,D69,2,A*%
%TO.N,Net-(D65-A)*%
X92093750Y-55013000D03*
%TD*%
%TO.P,D16,1,K*%
%TO.N,Net-(D112-K)*%
X143326250Y-36900000D03*
%TO.P,D16,2,A*%
%TO.N,Net-(D1-A)*%
X143326250Y-35025000D03*
%TD*%
%TO.P,D45,1,K*%
%TO.N,Net-(D109-K)*%
X129353750Y-46894000D03*
%TO.P,D45,2,A*%
%TO.N,Net-(D33-A)*%
X129353750Y-45019000D03*
%TD*%
%TO.P,D11,1,K*%
%TO.N,Net-(D107-K)*%
X120038750Y-36900000D03*
%TO.P,D11,2,A*%
%TO.N,Net-(D1-A)*%
X120038750Y-35025000D03*
%TD*%
%TO.P,D118,1,K*%
%TO.N,Net-(D102-K)*%
X96751250Y-71879000D03*
%TO.P,D118,2,A*%
%TO.N,Net-(D113-A)*%
X96751250Y-70004000D03*
%TD*%
%TO.P,D28,1,K*%
%TO.N,Net-(D108-K)*%
X124696250Y-41897000D03*
%TO.P,D28,2,A*%
%TO.N,Net-(D17-A)*%
X124696250Y-40022000D03*
%TD*%
%TO.P,D125,1,K*%
%TO.N,Net-(D109-K)*%
X129353750Y-71879000D03*
%TO.P,D125,2,A*%
%TO.N,Net-(D113-A)*%
X129353750Y-70004000D03*
%TD*%
%TO.P,D6,1,K*%
%TO.N,Net-(D102-K)*%
X96751250Y-36900000D03*
%TO.P,D6,2,A*%
%TO.N,Net-(D1-A)*%
X96751250Y-35025000D03*
%TD*%
%TO.P,D114,1,K*%
%TO.N,Net-(D114-K)*%
X78121250Y-71879000D03*
%TO.P,D114,2,A*%
%TO.N,Net-(D113-A)*%
X78121250Y-70004000D03*
%TD*%
%TO.P,D90,1,K*%
%TO.N,Net-(D10-K)*%
X115381250Y-61885000D03*
%TO.P,D90,2,A*%
%TO.N,Net-(D81-A)*%
X115381250Y-60010000D03*
%TD*%
%TO.P,D109,1,K*%
%TO.N,Net-(D109-K)*%
X129353750Y-66882000D03*
%TO.P,D109,2,A*%
%TO.N,Net-(D100-A)*%
X129353750Y-65007000D03*
%TD*%
%TO.P,D71,1,K*%
%TO.N,Net-(D103-K)*%
X101408750Y-56888000D03*
%TO.P,D71,2,A*%
%TO.N,Net-(D65-A)*%
X101408750Y-55013000D03*
%TD*%
%TO.P,D12,1,K*%
%TO.N,Net-(D108-K)*%
X124696250Y-36900000D03*
%TO.P,D12,2,A*%
%TO.N,Net-(D1-A)*%
X124696250Y-35025000D03*
%TD*%
%TO.P,D27,1,K*%
%TO.N,Net-(D107-K)*%
X120038750Y-41897000D03*
%TO.P,D27,2,A*%
%TO.N,Net-(D17-A)*%
X120038750Y-40022000D03*
%TD*%
%TO.P,D121,1,K*%
%TO.N,Net-(D105-K)*%
X110723750Y-71879000D03*
%TO.P,D121,2,A*%
%TO.N,Net-(D113-A)*%
X110723750Y-70004000D03*
%TD*%
%TO.P,D22,1,K*%
%TO.N,Net-(D102-K)*%
X96751250Y-41897000D03*
%TO.P,D22,2,A*%
%TO.N,Net-(D17-A)*%
X96751250Y-40022000D03*
%TD*%
%TO.P,D52,1,K*%
%TO.N,Net-(D100-K)*%
X87436250Y-51891000D03*
%TO.P,D52,2,A*%
%TO.N,Net-(D49-A)*%
X87436250Y-50016000D03*
%TD*%
%TO.P,D4,1,K*%
%TO.N,Net-(D100-K)*%
X87436250Y-36900000D03*
%TO.P,D4,2,A*%
%TO.N,Net-(D1-A)*%
X87436250Y-35025000D03*
%TD*%
%TO.P,D17,1,K*%
%TO.N,Net-(D1-K)*%
X73463750Y-41897000D03*
%TO.P,D17,2,A*%
%TO.N,Net-(D17-A)*%
X73463750Y-40022000D03*
%TD*%
%TO.P,D124,1,K*%
%TO.N,Net-(D108-K)*%
X124696250Y-71879000D03*
%TO.P,D124,2,A*%
%TO.N,Net-(D113-A)*%
X124696250Y-70004000D03*
%TD*%
%TO.P,D74,1,K*%
%TO.N,Net-(D10-K)*%
X115381250Y-56888000D03*
%TO.P,D74,2,A*%
%TO.N,Net-(D65-A)*%
X115381250Y-55013000D03*
%TD*%
%TO.P,D24,1,K*%
%TO.N,Net-(D104-K)*%
X106066250Y-41897000D03*
%TO.P,D24,2,A*%
%TO.N,Net-(D17-A)*%
X106066250Y-40022000D03*
%TD*%
%TO.P,D113,1,K*%
%TO.N,Net-(D1-K)*%
X73463750Y-71879000D03*
%TO.P,D113,2,A*%
%TO.N,Net-(D113-A)*%
X73463750Y-70004000D03*
%TD*%
%TO.P,D106,1,K*%
%TO.N,Net-(D10-K)*%
X115381250Y-66882000D03*
%TO.P,D106,2,A*%
%TO.N,Net-(D100-A)*%
X115381250Y-65007000D03*
%TD*%
%TO.P,D107,1,K*%
%TO.N,Net-(D107-K)*%
X120038750Y-66882000D03*
%TO.P,D107,2,A*%
%TO.N,Net-(D100-A)*%
X120038750Y-65007000D03*
%TD*%
%TO.P,D86,1,K*%
%TO.N,Net-(D102-K)*%
X96751250Y-61885000D03*
%TO.P,D86,2,A*%
%TO.N,Net-(D81-A)*%
X96751250Y-60010000D03*
%TD*%
%TO.P,D57,1,K*%
%TO.N,Net-(D105-K)*%
X110723750Y-51891000D03*
%TO.P,D57,2,A*%
%TO.N,Net-(D49-A)*%
X110723750Y-50016000D03*
%TD*%
%TO.P,D20,1,K*%
%TO.N,Net-(D100-K)*%
X87436250Y-41897000D03*
%TO.P,D20,2,A*%
%TO.N,Net-(D17-A)*%
X87436250Y-40022000D03*
%TD*%
%TO.P,D122,1,K*%
%TO.N,Net-(D10-K)*%
X115381250Y-71879000D03*
%TO.P,D122,2,A*%
%TO.N,Net-(D113-A)*%
X115381250Y-70004000D03*
%TD*%
%TO.P,D7,1,K*%
%TO.N,Net-(D103-K)*%
X101408750Y-36900000D03*
%TO.P,D7,2,A*%
%TO.N,Net-(D1-A)*%
X101408750Y-35025000D03*
%TD*%
%TO.P,D89,1,K*%
%TO.N,Net-(D105-K)*%
X110723750Y-61885000D03*
%TO.P,D89,2,A*%
%TO.N,Net-(D81-A)*%
X110723750Y-60010000D03*
%TD*%
%TO.P,D5,1,K*%
%TO.N,Net-(D101-K)*%
X92093750Y-36900000D03*
%TO.P,D5,2,A*%
%TO.N,Net-(D1-A)*%
X92093750Y-35025000D03*
%TD*%
%TO.P,D82,1,K*%
%TO.N,Net-(D114-K)*%
X78121250Y-61885000D03*
%TO.P,D82,2,A*%
%TO.N,Net-(D81-A)*%
X78121250Y-60010000D03*
%TD*%
%TO.P,D44,1,K*%
%TO.N,Net-(D108-K)*%
X124696250Y-46894000D03*
%TO.P,D44,2,A*%
%TO.N,Net-(D33-A)*%
X124696250Y-45019000D03*
%TD*%
%TO.P,D81,1,K*%
%TO.N,Net-(D1-K)*%
X73463750Y-61885000D03*
%TO.P,D81,2,A*%
%TO.N,Net-(D81-A)*%
X73463750Y-60010000D03*
%TD*%
%TO.P,D50,1,K*%
%TO.N,Net-(D114-K)*%
X78121250Y-51891000D03*
%TO.P,D50,2,A*%
%TO.N,Net-(D49-A)*%
X78121250Y-50016000D03*
%TD*%
%TO.P,D128,1,K*%
%TO.N,Net-(D112-K)*%
X143326250Y-71879000D03*
%TO.P,D128,2,A*%
%TO.N,Net-(D113-A)*%
X143326250Y-70004000D03*
%TD*%
%TO.P,D8,1,K*%
%TO.N,Net-(D104-K)*%
X106066250Y-36900000D03*
%TO.P,D8,2,A*%
%TO.N,Net-(D1-A)*%
X106066250Y-35025000D03*
%TD*%
%TO.P,D54,1,K*%
%TO.N,Net-(D102-K)*%
X96751250Y-51891000D03*
%TO.P,D54,2,A*%
%TO.N,Net-(D49-A)*%
X96751250Y-50016000D03*
%TD*%
%TO.P,D119,1,K*%
%TO.N,Net-(D103-K)*%
X101408750Y-71879000D03*
%TO.P,D119,2,A*%
%TO.N,Net-(D113-A)*%
X101408750Y-70004000D03*
%TD*%
%TO.P,D76,1,K*%
%TO.N,Net-(D108-K)*%
X124696250Y-56888000D03*
%TO.P,D76,2,A*%
%TO.N,Net-(D65-A)*%
X124696250Y-55013000D03*
%TD*%
%TO.P,D83,1,K*%
%TO.N,Net-(D115-K)*%
X82778750Y-61885000D03*
%TO.P,D83,2,A*%
%TO.N,Net-(D81-A)*%
X82778750Y-60010000D03*
%TD*%
%TO.P,D95,1,K*%
%TO.N,Net-(D111-K)*%
X138668750Y-61885000D03*
%TO.P,D95,2,A*%
%TO.N,Net-(D81-A)*%
X138668750Y-60010000D03*
%TD*%
%TO.P,D63,1,K*%
%TO.N,Net-(D111-K)*%
X138668750Y-51891000D03*
%TO.P,D63,2,A*%
%TO.N,Net-(D49-A)*%
X138668750Y-50016000D03*
%TD*%
%TO.P,D120,1,K*%
%TO.N,Net-(D104-K)*%
X106066250Y-71879000D03*
%TO.P,D120,2,A*%
%TO.N,Net-(D113-A)*%
X106066250Y-70004000D03*
%TD*%
%TO.P,D61,1,K*%
%TO.N,Net-(D109-K)*%
X129353750Y-51891000D03*
%TO.P,D61,2,A*%
%TO.N,Net-(D49-A)*%
X129353750Y-50016000D03*
%TD*%
%TO.P,D53,1,K*%
%TO.N,Net-(D101-K)*%
X92093750Y-51891000D03*
%TO.P,D53,2,A*%
%TO.N,Net-(D49-A)*%
X92093750Y-50016000D03*
%TD*%
%TO.P,D104,1,K*%
%TO.N,Net-(D104-K)*%
X106066250Y-66882000D03*
%TO.P,D104,2,A*%
%TO.N,Net-(D100-A)*%
X106066250Y-65007000D03*
%TD*%
%TO.P,D66,1,K*%
%TO.N,Net-(D114-K)*%
X78121250Y-56888000D03*
%TO.P,D66,2,A*%
%TO.N,Net-(D65-A)*%
X78121250Y-55013000D03*
%TD*%
%TO.P,D91,1,K*%
%TO.N,Net-(D107-K)*%
X120038750Y-61885000D03*
%TO.P,D91,2,A*%
%TO.N,Net-(D81-A)*%
X120038750Y-60010000D03*
%TD*%
%TO.P,D36,1,K*%
%TO.N,Net-(D100-K)*%
X87436250Y-46894000D03*
%TO.P,D36,2,A*%
%TO.N,Net-(D33-A)*%
X87436250Y-45019000D03*
%TD*%
%TO.P,D123,1,K*%
%TO.N,Net-(D107-K)*%
X120038750Y-71879000D03*
%TO.P,D123,2,A*%
%TO.N,Net-(D113-A)*%
X120038750Y-70004000D03*
%TD*%
%TO.P,D99,1,K*%
%TO.N,Net-(D115-K)*%
X82778750Y-66882000D03*
%TO.P,D99,2,A*%
%TO.N,Net-(D100-A)*%
X82778750Y-65007000D03*
%TD*%
%TO.P,D116,1,K*%
%TO.N,Net-(D100-K)*%
X87436250Y-71879000D03*
%TO.P,D116,2,A*%
%TO.N,Net-(D113-A)*%
X87436250Y-70004000D03*
%TD*%
%TO.P,D30,1,K*%
%TO.N,Net-(D110-K)*%
X134011250Y-41897000D03*
%TO.P,D30,2,A*%
%TO.N,Net-(D17-A)*%
X134011250Y-40022000D03*
%TD*%
%TO.P,D68,1,K*%
%TO.N,Net-(D100-K)*%
X87436250Y-56888000D03*
%TO.P,D68,2,A*%
%TO.N,Net-(D65-A)*%
X87436250Y-55013000D03*
%TD*%
%TO.P,D31,1,K*%
%TO.N,Net-(D111-K)*%
X138668750Y-41897000D03*
%TO.P,D31,2,A*%
%TO.N,Net-(D17-A)*%
X138668750Y-40022000D03*
%TD*%
%TO.P,D105,1,K*%
%TO.N,Net-(D105-K)*%
X110723750Y-66882000D03*
%TO.P,D105,2,A*%
%TO.N,Net-(D100-A)*%
X110723750Y-65007000D03*
%TD*%
%TO.P,D88,1,K*%
%TO.N,Net-(D104-K)*%
X106066250Y-61885000D03*
%TO.P,D88,2,A*%
%TO.N,Net-(D81-A)*%
X106066250Y-60010000D03*
%TD*%
%TO.P,D80,1,K*%
%TO.N,Net-(D112-K)*%
X143326250Y-56888000D03*
%TO.P,D80,2,A*%
%TO.N,Net-(D65-A)*%
X143326250Y-55013000D03*
%TD*%
%TO.P,D47,1,K*%
%TO.N,Net-(D111-K)*%
X138668750Y-46894000D03*
%TO.P,D47,2,A*%
%TO.N,Net-(D33-A)*%
X138668750Y-45019000D03*
%TD*%
%TO.P,D79,1,K*%
%TO.N,Net-(D111-K)*%
X138668750Y-56888000D03*
%TO.P,D79,2,A*%
%TO.N,Net-(D65-A)*%
X138668750Y-55013000D03*
%TD*%
%TO.P,D108,1,K*%
%TO.N,Net-(D108-K)*%
X124696250Y-66882000D03*
%TO.P,D108,2,A*%
%TO.N,Net-(D100-A)*%
X124696250Y-65007000D03*
%TD*%
%TO.P,D58,1,K*%
%TO.N,Net-(D10-K)*%
X115381250Y-51891000D03*
%TO.P,D58,2,A*%
%TO.N,Net-(D49-A)*%
X115381250Y-50016000D03*
%TD*%
%TO.P,D62,1,K*%
%TO.N,Net-(D110-K)*%
X134011250Y-51891000D03*
%TO.P,D62,2,A*%
%TO.N,Net-(D49-A)*%
X134011250Y-50016000D03*
%TD*%
%TO.P,D32,1,K*%
%TO.N,Net-(D112-K)*%
X143326250Y-41897000D03*
%TO.P,D32,2,A*%
%TO.N,Net-(D17-A)*%
X143326250Y-40022000D03*
%TD*%
%TO.P,D102,1,K*%
%TO.N,Net-(D102-K)*%
X96751250Y-66882000D03*
%TO.P,D102,2,A*%
%TO.N,Net-(D100-A)*%
X96751250Y-65007000D03*
%TD*%
%TO.P,D13,1,K*%
%TO.N,Net-(D109-K)*%
X129353750Y-36900000D03*
%TO.P,D13,2,A*%
%TO.N,Net-(D1-A)*%
X129353750Y-35025000D03*
%TD*%
%TO.P,D35,1,K*%
%TO.N,Net-(D115-K)*%
X82778750Y-46894000D03*
%TO.P,D35,2,A*%
%TO.N,Net-(D33-A)*%
X82778750Y-45019000D03*
%TD*%
%TO.P,D49,1,K*%
%TO.N,Net-(D1-K)*%
X73463750Y-51891000D03*
%TO.P,D49,2,A*%
%TO.N,Net-(D49-A)*%
X73463750Y-50016000D03*
%TD*%
%TO.P,D103,1,K*%
%TO.N,Net-(D103-K)*%
X101408750Y-66882000D03*
%TO.P,D103,2,A*%
%TO.N,Net-(D100-A)*%
X101408750Y-65007000D03*
%TD*%
%TO.P,D3,1,K*%
%TO.N,Net-(D115-K)*%
X82778750Y-36900000D03*
%TO.P,D3,2,A*%
%TO.N,Net-(D1-A)*%
X82778750Y-35025000D03*
%TD*%
%TO.P,D37,1,K*%
%TO.N,Net-(D101-K)*%
X92093750Y-46894000D03*
%TO.P,D37,2,A*%
%TO.N,Net-(D33-A)*%
X92093750Y-45019000D03*
%TD*%
%TO.P,D42,1,K*%
%TO.N,Net-(D10-K)*%
X115381250Y-46894000D03*
%TO.P,D42,2,A*%
%TO.N,Net-(D33-A)*%
X115381250Y-45019000D03*
%TD*%
%TO.P,D56,1,K*%
%TO.N,Net-(D104-K)*%
X106066250Y-51891000D03*
%TO.P,D56,2,A*%
%TO.N,Net-(D49-A)*%
X106066250Y-50016000D03*
%TD*%
%TO.P,D26,1,K*%
%TO.N,Net-(D10-K)*%
X115381250Y-41897000D03*
%TO.P,D26,2,A*%
%TO.N,Net-(D17-A)*%
X115381250Y-40022000D03*
%TD*%
%TO.P,D23,1,K*%
%TO.N,Net-(D103-K)*%
X101408750Y-41897000D03*
%TO.P,D23,2,A*%
%TO.N,Net-(D17-A)*%
X101408750Y-40022000D03*
%TD*%
%TO.P,D111,1,K*%
%TO.N,Net-(D111-K)*%
X138668750Y-66882000D03*
%TO.P,D111,2,A*%
%TO.N,Net-(D100-A)*%
X138668750Y-65007000D03*
%TD*%
%TO.P,D51,1,K*%
%TO.N,Net-(D115-K)*%
X82778750Y-51891000D03*
%TO.P,D51,2,A*%
%TO.N,Net-(D49-A)*%
X82778750Y-50016000D03*
%TD*%
D12*
%TO.P,U2,1*%
%TO.N,Net-(D1-K)*%
X90440000Y-81000000D03*
D11*
%TO.P,U2,2*%
%TO.N,Net-(D114-K)*%
X92980000Y-81000000D03*
%TO.P,U2,3*%
%TO.N,Net-(D115-K)*%
X95520000Y-81000000D03*
%TO.P,U2,4*%
%TO.N,Net-(D100-K)*%
X98060000Y-81000000D03*
%TO.P,U2,5*%
%TO.N,Net-(D101-K)*%
X100600000Y-81000000D03*
%TO.P,U2,6*%
%TO.N,Net-(D102-K)*%
X103140000Y-81000000D03*
%TO.P,U2,7*%
%TO.N,Net-(D103-K)*%
X105680000Y-81000000D03*
%TO.P,U2,8*%
%TO.N,Net-(D104-K)*%
X108220000Y-81000000D03*
%TO.P,U2,9*%
%TO.N,Net-(D105-K)*%
X110760000Y-81000000D03*
%TO.P,U2,10*%
%TO.N,Net-(D10-K)*%
X113300000Y-81000000D03*
%TO.P,U2,11*%
%TO.N,Net-(D107-K)*%
X115840000Y-81000000D03*
%TO.P,U2,12*%
%TO.N,Net-(D108-K)*%
X118380000Y-81000000D03*
%TO.P,U2,13*%
%TO.N,Net-(D109-K)*%
X120920000Y-81000000D03*
%TO.P,U2,14*%
%TO.N,Net-(D110-K)*%
X123460000Y-81000000D03*
%TO.P,U2,15*%
%TO.N,Net-(D111-K)*%
X126000000Y-81000000D03*
%TO.P,U2,16*%
%TO.N,Net-(D112-K)*%
X128540000Y-81000000D03*
%TD*%
D13*
%TO.P,D72,1,K*%
%TO.N,Net-(D104-K)*%
X106066250Y-56888000D03*
%TO.P,D72,2,A*%
%TO.N,Net-(D65-A)*%
X106066250Y-55013000D03*
%TD*%
%TO.P,D25,1,K*%
%TO.N,Net-(D105-K)*%
X110723750Y-41897000D03*
%TO.P,D25,2,A*%
%TO.N,Net-(D17-A)*%
X110723750Y-40022000D03*
%TD*%
%TO.P,D100,1,K*%
%TO.N,Net-(D100-K)*%
X87436250Y-66882000D03*
%TO.P,D100,2,A*%
%TO.N,Net-(D100-A)*%
X87436250Y-65007000D03*
%TD*%
%TO.P,D46,1,K*%
%TO.N,Net-(D110-K)*%
X134011250Y-46894000D03*
%TO.P,D46,2,A*%
%TO.N,Net-(D33-A)*%
X134011250Y-45019000D03*
%TD*%
%TO.P,D127,1,K*%
%TO.N,Net-(D111-K)*%
X138668750Y-71879000D03*
%TO.P,D127,2,A*%
%TO.N,Net-(D113-A)*%
X138668750Y-70004000D03*
%TD*%
%TO.P,D41,1,K*%
%TO.N,Net-(D105-K)*%
X110723750Y-46894000D03*
%TO.P,D41,2,A*%
%TO.N,Net-(D33-A)*%
X110723750Y-45019000D03*
%TD*%
%TO.P,D1,1,K*%
%TO.N,Net-(D1-K)*%
X73463750Y-36900000D03*
%TO.P,D1,2,A*%
%TO.N,Net-(D1-A)*%
X73463750Y-35025000D03*
%TD*%
%TO.P,D60,1,K*%
%TO.N,Net-(D108-K)*%
X124696250Y-51891000D03*
%TO.P,D60,2,A*%
%TO.N,Net-(D49-A)*%
X124696250Y-50016000D03*
%TD*%
%TO.P,D101,1,K*%
%TO.N,Net-(D101-K)*%
X92093750Y-66882000D03*
%TO.P,D101,2,A*%
%TO.N,Net-(D100-A)*%
X92093750Y-65007000D03*
%TD*%
%TO.P,D29,1,K*%
%TO.N,Net-(D109-K)*%
X129353750Y-41897000D03*
%TO.P,D29,2,A*%
%TO.N,Net-(D17-A)*%
X129353750Y-40022000D03*
%TD*%
%TO.P,D43,1,K*%
%TO.N,Net-(D107-K)*%
X120038750Y-46894000D03*
%TO.P,D43,2,A*%
%TO.N,Net-(D33-A)*%
X120038750Y-45019000D03*
%TD*%
%TO.P,D93,1,K*%
%TO.N,Net-(D109-K)*%
X129353750Y-61885000D03*
%TO.P,D93,2,A*%
%TO.N,Net-(D81-A)*%
X129353750Y-60010000D03*
%TD*%
%TO.P,D67,1,K*%
%TO.N,Net-(D115-K)*%
X82778750Y-56888000D03*
%TO.P,D67,2,A*%
%TO.N,Net-(D65-A)*%
X82778750Y-55013000D03*
%TD*%
%TO.P,D73,1,K*%
%TO.N,Net-(D105-K)*%
X110723750Y-56888000D03*
%TO.P,D73,2,A*%
%TO.N,Net-(D65-A)*%
X110723750Y-55013000D03*
%TD*%
%TO.P,D14,1,K*%
%TO.N,Net-(D110-K)*%
X134011250Y-36900000D03*
%TO.P,D14,2,A*%
%TO.N,Net-(D1-A)*%
X134011250Y-35025000D03*
%TD*%
%TO.P,D110,1,K*%
%TO.N,Net-(D110-K)*%
X134011250Y-66882000D03*
%TO.P,D110,2,A*%
%TO.N,Net-(D100-A)*%
X134011250Y-65007000D03*
%TD*%
%TO.P,D96,1,K*%
%TO.N,Net-(D112-K)*%
X143326250Y-61885000D03*
%TO.P,D96,2,A*%
%TO.N,Net-(D81-A)*%
X143326250Y-60010000D03*
%TD*%
%TO.P,D19,1,K*%
%TO.N,Net-(D115-K)*%
X82778750Y-41897000D03*
%TO.P,D19,2,A*%
%TO.N,Net-(D17-A)*%
X82778750Y-40022000D03*
%TD*%
%TO.P,D33,1,K*%
%TO.N,Net-(D1-K)*%
X73463750Y-46894000D03*
%TO.P,D33,2,A*%
%TO.N,Net-(D33-A)*%
X73463750Y-45019000D03*
%TD*%
%TO.P,D9,1,K*%
%TO.N,Net-(D105-K)*%
X110723750Y-36900000D03*
%TO.P,D9,2,A*%
%TO.N,Net-(D1-A)*%
X110723750Y-35025000D03*
%TD*%
%TO.P,D84,1,K*%
%TO.N,Net-(D100-K)*%
X87436250Y-61885000D03*
%TO.P,D84,2,A*%
%TO.N,Net-(D81-A)*%
X87436250Y-60010000D03*
%TD*%
%TO.P,D126,1,K*%
%TO.N,Net-(D110-K)*%
X134011250Y-71879000D03*
%TO.P,D126,2,A*%
%TO.N,Net-(D113-A)*%
X134011250Y-70004000D03*
%TD*%
%TO.P,D78,1,K*%
%TO.N,Net-(D110-K)*%
X134011250Y-56888000D03*
%TO.P,D78,2,A*%
%TO.N,Net-(D65-A)*%
X134011250Y-55013000D03*
%TD*%
%TO.P,D21,1,K*%
%TO.N,Net-(D101-K)*%
X92093750Y-41897000D03*
%TO.P,D21,2,A*%
%TO.N,Net-(D17-A)*%
X92093750Y-40022000D03*
%TD*%
%TO.P,D98,1,K*%
%TO.N,Net-(D114-K)*%
X78121250Y-66882000D03*
%TO.P,D98,2,A*%
%TO.N,Net-(D100-A)*%
X78121250Y-65007000D03*
%TD*%
%TO.P,D59,1,K*%
%TO.N,Net-(D107-K)*%
X120038750Y-51891000D03*
%TO.P,D59,2,A*%
%TO.N,Net-(D49-A)*%
X120038750Y-50016000D03*
%TD*%
%TO.P,D87,1,K*%
%TO.N,Net-(D103-K)*%
X101408750Y-61885000D03*
%TO.P,D87,2,A*%
%TO.N,Net-(D81-A)*%
X101408750Y-60010000D03*
%TD*%
%TO.P,D65,1,K*%
%TO.N,Net-(D1-K)*%
X73463750Y-56888000D03*
%TO.P,D65,2,A*%
%TO.N,Net-(D65-A)*%
X73463750Y-55013000D03*
%TD*%
%TO.P,D115,1,K*%
%TO.N,Net-(D115-K)*%
X82778750Y-71879000D03*
%TO.P,D115,2,A*%
%TO.N,Net-(D113-A)*%
X82778750Y-70004000D03*
%TD*%
%TO.P,D92,1,K*%
%TO.N,Net-(D108-K)*%
X124696250Y-61885000D03*
%TO.P,D92,2,A*%
%TO.N,Net-(D81-A)*%
X124696250Y-60010000D03*
%TD*%
%TO.P,D112,1,K*%
%TO.N,Net-(D112-K)*%
X143326250Y-66882000D03*
%TO.P,D112,2,A*%
%TO.N,Net-(D100-A)*%
X143326250Y-65007000D03*
%TD*%
%TO.P,D64,1,K*%
%TO.N,Net-(D112-K)*%
X143326250Y-51891000D03*
%TO.P,D64,2,A*%
%TO.N,Net-(D49-A)*%
X143326250Y-50016000D03*
%TD*%
%TO.P,D15,1,K*%
%TO.N,Net-(D111-K)*%
X138668750Y-36900000D03*
%TO.P,D15,2,A*%
%TO.N,Net-(D1-A)*%
X138668750Y-35025000D03*
%TD*%
%TO.P,D2,1,K*%
%TO.N,Net-(D114-K)*%
X78121250Y-36900000D03*
%TO.P,D2,2,A*%
%TO.N,Net-(D1-A)*%
X78121250Y-35025000D03*
%TD*%
%TO.P,D40,1,K*%
%TO.N,Net-(D104-K)*%
X106066250Y-46894000D03*
%TO.P,D40,2,A*%
%TO.N,Net-(D33-A)*%
X106066250Y-45019000D03*
%TD*%
%TO.P,D75,1,K*%
%TO.N,Net-(D107-K)*%
X120038750Y-56888000D03*
%TO.P,D75,2,A*%
%TO.N,Net-(D65-A)*%
X120038750Y-55013000D03*
%TD*%
%TO.P,D70,1,K*%
%TO.N,Net-(D102-K)*%
X96751250Y-56888000D03*
%TO.P,D70,2,A*%
%TO.N,Net-(D65-A)*%
X96751250Y-55013000D03*
%TD*%
%TO.P,D48,1,K*%
%TO.N,Net-(D112-K)*%
X143326250Y-46894000D03*
%TO.P,D48,2,A*%
%TO.N,Net-(D33-A)*%
X143326250Y-45019000D03*
%TD*%
%TO.P,D34,1,K*%
%TO.N,Net-(D114-K)*%
X78121250Y-46894000D03*
%TO.P,D34,2,A*%
%TO.N,Net-(D33-A)*%
X78121250Y-45019000D03*
%TD*%
%TO.P,D97,1,K*%
%TO.N,Net-(D1-K)*%
X73463750Y-66882000D03*
%TO.P,D97,2,A*%
%TO.N,Net-(D100-A)*%
X73463750Y-65007000D03*
%TD*%
%TO.P,D85,1,K*%
%TO.N,Net-(D101-K)*%
X92093750Y-61885000D03*
%TO.P,D85,2,A*%
%TO.N,Net-(D81-A)*%
X92093750Y-60010000D03*
%TD*%
%TO.P,D38,1,K*%
%TO.N,Net-(D102-K)*%
X96751250Y-46894000D03*
%TO.P,D38,2,A*%
%TO.N,Net-(D33-A)*%
X96751250Y-45019000D03*
%TD*%
%TO.P,D39,1,K*%
%TO.N,Net-(D103-K)*%
X101408750Y-46894000D03*
%TO.P,D39,2,A*%
%TO.N,Net-(D33-A)*%
X101408750Y-45019000D03*
%TD*%
%TO.P,D117,1,K*%
%TO.N,Net-(D101-K)*%
X92093750Y-71879000D03*
%TO.P,D117,2,A*%
%TO.N,Net-(D113-A)*%
X92093750Y-70004000D03*
%TD*%
D14*
%TO.N,Net-(D1-K)*%
X73463750Y-71879000D03*
X73463750Y-36900000D03*
X73463750Y-51891000D03*
X73463750Y-56888000D03*
X73463750Y-41897000D03*
X73463750Y-61885000D03*
X73463750Y-46894000D03*
X73463750Y-66882000D03*
%TO.N,Net-(D100-K)*%
X87472497Y-46909804D03*
X87472497Y-51906804D03*
X87472497Y-61900804D03*
X87472497Y-66897804D03*
X87472497Y-56903804D03*
X87472497Y-71894804D03*
X87472497Y-36915804D03*
X87472497Y-41912804D03*
%TO.N,Net-(D101-K)*%
X92127365Y-46922539D03*
X92127365Y-56916539D03*
X92127365Y-51919539D03*
X92127365Y-61913539D03*
X92127365Y-36928539D03*
X92127365Y-71907539D03*
X92127365Y-41925539D03*
X92127365Y-66910539D03*
%TO.N,Net-(D102-K)*%
X96769498Y-41887332D03*
X96769498Y-36890332D03*
X96769498Y-46884332D03*
X96769498Y-66872332D03*
X96769498Y-61875332D03*
X96769498Y-56878332D03*
X96769498Y-71869332D03*
X96769498Y-51881332D03*
%TO.N,Net-(D103-K)*%
X101424367Y-56910171D03*
X101424367Y-46916171D03*
X101424367Y-51913171D03*
X101424367Y-41919171D03*
X101424367Y-61907171D03*
X101424367Y-36922171D03*
X101424367Y-71901171D03*
X101424367Y-66904171D03*
%TO.N,Net-(D104-K)*%
X106085603Y-66942378D03*
X106085603Y-56948378D03*
X106085603Y-71939378D03*
X106085603Y-51951378D03*
X106085603Y-61945378D03*
X106085603Y-46954378D03*
X106085603Y-36960378D03*
X106085603Y-41957378D03*
%TO.N,Net-(D105-K)*%
X110740472Y-66948746D03*
X110740472Y-71945746D03*
X110740472Y-36966746D03*
X110740472Y-41963746D03*
X110740472Y-51957746D03*
X110740472Y-46960746D03*
X110740472Y-56954746D03*
X110740472Y-61951746D03*
%TO.N,Net-(D10-K)*%
X115382605Y-46973482D03*
X115382605Y-66961482D03*
X115382605Y-61964482D03*
X115382605Y-41976482D03*
X115382605Y-71958482D03*
X115382605Y-36979482D03*
X115382605Y-51970482D03*
X115382605Y-56967482D03*
%TO.N,Net-(D107-K)*%
X120050209Y-36966746D03*
X120050209Y-66948746D03*
X120050209Y-46960746D03*
X120050209Y-41963746D03*
X120050209Y-51957746D03*
X120050209Y-71945746D03*
X120050209Y-56954746D03*
X120050209Y-61951746D03*
%TO.N,Net-(D108-K)*%
X124736916Y-66936011D03*
X124736916Y-36954011D03*
X124736916Y-61939011D03*
X124736916Y-41951011D03*
X124736916Y-56942011D03*
X124736916Y-51945011D03*
X124736916Y-46948011D03*
X124736916Y-71933011D03*
%TO.N,Net-(D109-K)*%
X129366314Y-61932643D03*
X129366314Y-56935643D03*
X129366314Y-36947643D03*
X129366314Y-41944643D03*
X129366314Y-46941643D03*
X129366314Y-51938643D03*
X129366314Y-66929643D03*
X129366314Y-71926643D03*
%TO.N,Net-(D110-K)*%
X134040286Y-56948378D03*
X134040286Y-51951378D03*
X134040286Y-41957378D03*
X134040286Y-61945378D03*
X134040286Y-66942378D03*
X134040286Y-71939378D03*
X134040286Y-46954378D03*
X134040286Y-36960378D03*
%TO.N,Net-(D111-K)*%
X138669683Y-56935643D03*
X138669683Y-41944643D03*
X138669683Y-66929643D03*
X138669683Y-71926643D03*
X138669683Y-61932643D03*
X138669683Y-46941643D03*
X138669683Y-51938643D03*
X138669683Y-36947643D03*
%TO.N,Net-(D112-K)*%
X143362758Y-46948011D03*
X143362758Y-41951011D03*
X143362758Y-51945011D03*
X143362758Y-56942011D03*
X143362758Y-66936011D03*
X143362758Y-71933011D03*
X143362758Y-36954011D03*
X143362758Y-61939011D03*
%TO.N,Net-(D114-K)*%
X78124553Y-61926275D03*
X78124553Y-56929275D03*
X78124553Y-41938275D03*
X78124553Y-36941275D03*
X78124553Y-66923275D03*
X78124553Y-46935275D03*
X78124553Y-51932275D03*
X78124553Y-71920275D03*
%TO.N,Net-(D115-K)*%
X82792157Y-56903804D03*
X82792157Y-66897804D03*
X82792157Y-61900804D03*
X82792157Y-51906804D03*
X82792157Y-46909804D03*
X82792157Y-36915804D03*
X82792157Y-41912804D03*
X82792157Y-71894804D03*
%TD*%
D15*
%TO.N,Net-(D113-A)*%
X150420000Y-70000000D02*
X143330250Y-70000000D01*
X143330250Y-70000000D02*
X143326250Y-70004000D01*
%TO.N,Net-(D100-A)*%
X143326250Y-65007000D02*
X149913000Y-65007000D01*
X149913000Y-65007000D02*
X150420000Y-64500000D01*
%TO.N,Net-(D81-A)*%
X150420000Y-60000000D02*
X143336250Y-60000000D01*
X143336250Y-60000000D02*
X143326250Y-60010000D01*
%TO.N,Net-(D65-A)*%
X143326250Y-55013000D02*
X150407000Y-55013000D01*
X150407000Y-55013000D02*
X150420000Y-55000000D01*
%TO.N,Net-(D49-A)*%
X150420000Y-50000000D02*
X143342250Y-50000000D01*
X143342250Y-50000000D02*
X143326250Y-50016000D01*
%TO.N,Net-(D33-A)*%
X150500000Y-45000000D02*
X143345250Y-45000000D01*
X143345250Y-45000000D02*
X143326250Y-45019000D01*
%TO.N,Net-(D17-A)*%
X143326250Y-40022000D02*
X143978000Y-40022000D01*
X143978000Y-40022000D02*
X144000000Y-40000000D01*
X144000000Y-40000000D02*
X150420000Y-40000000D01*
%TO.N,Net-(D1-A)*%
X150420000Y-35000000D02*
X143351250Y-35000000D01*
X143351250Y-35000000D02*
X143326250Y-35025000D01*
%TO.N,Net-(R1-Pad2)*%
X169500000Y-61280000D02*
X169300000Y-61280000D01*
X169300000Y-61280000D02*
X160580000Y-70000000D01*
%TO.N,Net-(R2-Pad2)*%
X169500000Y-58740000D02*
X163740000Y-64500000D01*
X163740000Y-64500000D02*
X160580000Y-64500000D01*
%TO.N,Net-(R3-Pad2)*%
X169500000Y-56200000D02*
X164380000Y-56200000D01*
X164380000Y-56200000D02*
X160580000Y-60000000D01*
%TO.N,Net-(R4-Pad2)*%
X160580000Y-55000000D02*
X168160000Y-55000000D01*
X168160000Y-55000000D02*
X169500000Y-53660000D01*
%TO.N,Net-(R5-Pad2)*%
X169500000Y-51120000D02*
X168380000Y-50000000D01*
X168380000Y-50000000D02*
X160580000Y-50000000D01*
%TO.N,Net-(R6-Pad2)*%
X160660000Y-45000000D02*
X165920000Y-45000000D01*
X165920000Y-45000000D02*
X169500000Y-48580000D01*
%TO.N,Net-(R7-Pad2)*%
X160580000Y-40000000D02*
X163460000Y-40000000D01*
X163460000Y-40000000D02*
X169500000Y-46040000D01*
%TO.N,Net-(R8-Pad2)*%
X169500000Y-43500000D02*
X169500000Y-37000000D01*
X169500000Y-37000000D02*
X167500000Y-35000000D01*
X167500000Y-35000000D02*
X160580000Y-35000000D01*
%TO.N,Net-(D1-A)*%
X73463750Y-35025000D02*
X143326250Y-35025000D01*
%TO.N,Net-(D17-A)*%
X143326250Y-40022000D02*
X73463750Y-40022000D01*
%TO.N,Net-(D33-A)*%
X73463750Y-45019000D02*
X143326250Y-45019000D01*
%TO.N,Net-(D49-A)*%
X143326250Y-50016000D02*
X73463750Y-50016000D01*
%TO.N,Net-(D65-A)*%
X73463750Y-55013000D02*
X143326250Y-55013000D01*
%TO.N,Net-(D81-A)*%
X143326250Y-60010000D02*
X73463750Y-60010000D01*
%TO.N,Net-(D100-A)*%
X73463750Y-65007000D02*
X143326250Y-65007000D01*
%TO.N,Net-(D113-A)*%
X143326250Y-70004000D02*
X73463750Y-70004000D01*
%TD*%
M02*
