M48
; DRILL file {KiCad 9.0.7-9.0.7~ubuntu24.04.1} date 2026-02-22T02:31:20+0000
; FORMAT={-:-/ absolute / metric / decimal}
; #@! TF.CreationDate,2026-02-22T02:31:20+00:00
; #@! TF.GenerationSoftware,Kicad,Pcbnew,9.0.7-9.0.7~ubuntu24.04.1
; #@! TF.FileFunction,Plated,1,2,PTH
FMAT,2
METRIC
; #@! TA.AperFunction,Plated,PTH,ViaDrill
T1C0.400
; #@! TA.AperFunction,Plated,PTH,ComponentDrill
T2C0.800
; #@! TA.AperFunction,Plated,PTH,ComponentDrill
T3C1.000
%
G90
G05
T1
X73.464Y-36.9
X73.464Y-41.897
X73.464Y-46.894
X73.464Y-51.891
X73.464Y-56.888
X73.464Y-61.885
X73.464Y-66.882
X73.464Y-71.879
X78.125Y-36.941
X78.125Y-41.938
X78.125Y-46.935
X78.125Y-51.932
X78.125Y-56.929
X78.125Y-61.926
X78.125Y-66.923
X78.125Y-71.92
X82.792Y-36.916
X82.792Y-41.913
X82.792Y-46.91
X82.792Y-51.907
X82.792Y-56.904
X82.792Y-61.901
X82.792Y-66.898
X82.792Y-71.895
X87.472Y-36.916
X87.472Y-41.913
X87.472Y-46.91
X87.472Y-51.907
X87.472Y-56.904
X87.472Y-61.901
X87.472Y-66.898
X87.472Y-71.895
X92.127Y-36.929
X92.127Y-41.926
X92.127Y-46.923
X92.127Y-51.92
X92.127Y-56.917
X92.127Y-61.914
X92.127Y-66.911
X92.127Y-71.908
X96.769Y-36.89
X96.769Y-41.887
X96.769Y-46.884
X96.769Y-51.881
X96.769Y-56.878
X96.769Y-61.875
X96.769Y-66.872
X96.769Y-71.869
X101.424Y-36.922
X101.424Y-41.919
X101.424Y-46.916
X101.424Y-51.913
X101.424Y-56.91
X101.424Y-61.907
X101.424Y-66.904
X101.424Y-71.901
X106.086Y-36.96
X106.086Y-41.957
X106.086Y-46.954
X106.086Y-51.951
X106.086Y-56.948
X106.086Y-61.945
X106.086Y-66.942
X106.086Y-71.939
X110.74Y-36.967
X110.74Y-41.964
X110.74Y-46.961
X110.74Y-51.958
X110.74Y-56.955
X110.74Y-61.952
X110.74Y-66.949
X110.74Y-71.946
X115.383Y-36.979
X115.383Y-41.976
X115.383Y-46.973
X115.383Y-51.97
X115.383Y-56.967
X115.383Y-61.964
X115.383Y-66.961
X115.383Y-71.958
X120.05Y-36.967
X120.05Y-41.964
X120.05Y-46.961
X120.05Y-51.958
X120.05Y-56.955
X120.05Y-61.952
X120.05Y-66.949
X120.05Y-71.946
X124.737Y-36.954
X124.737Y-41.951
X124.737Y-46.948
X124.737Y-51.945
X124.737Y-56.942
X124.737Y-61.939
X124.737Y-66.936
X124.737Y-71.933
X129.366Y-36.948
X129.366Y-41.945
X129.366Y-46.942
X129.366Y-51.939
X129.366Y-56.936
X129.366Y-61.933
X129.366Y-66.93
X129.366Y-71.927
X134.04Y-36.96
X134.04Y-41.957
X134.04Y-46.954
X134.04Y-51.951
X134.04Y-56.948
X134.04Y-61.945
X134.04Y-66.942
X134.04Y-71.939
X138.67Y-36.948
X138.67Y-41.945
X138.67Y-46.942
X138.67Y-51.939
X138.67Y-56.936
X138.67Y-61.933
X138.67Y-66.93
X138.67Y-71.927
X143.363Y-36.954
X143.363Y-41.951
X143.363Y-46.948
X143.363Y-51.945
X143.363Y-56.942
X143.363Y-61.939
X143.363Y-66.936
X143.363Y-71.933
T2
X150.42Y-35.0
X150.42Y-40.0
X150.42Y-50.0
X150.42Y-55.0
X150.42Y-60.0
X150.42Y-64.5
X150.42Y-70.0
X150.5Y-45.0
X160.58Y-35.0
X160.58Y-40.0
X160.58Y-50.0
X160.58Y-55.0
X160.58Y-60.0
X160.58Y-64.5
X160.58Y-70.0
X160.66Y-45.0
T3
X90.44Y-81.0
X92.98Y-81.0
X95.52Y-81.0
X98.06Y-81.0
X100.6Y-81.0
X103.14Y-81.0
X105.68Y-81.0
X108.22Y-81.0
X110.76Y-81.0
X113.3Y-81.0
X115.84Y-81.0
X118.38Y-81.0
X120.92Y-81.0
X123.46Y-81.0
X126.0Y-81.0
X128.54Y-81.0
X169.5Y-43.5
X169.5Y-46.04
X169.5Y-48.58
X169.5Y-51.12
X169.5Y-53.66
X169.5Y-56.2
X169.5Y-58.74
X169.5Y-61.28
M30
